<?xml version="1.0" standalone="no"?>
<!DOCTYPE svg PUBLIC "-//W3C//DTD SVG 20010904//EN"
 "http://www.w3.org/TR/2001/REC-SVG-20010904/DTD/svg10.dtd">
<svg version="1.0" xmlns="http://www.w3.org/2000/svg"
 width="512.000000pt" height="512.000000pt" viewBox="0 0 512.000000 512.000000"
 preserveAspectRatio="xMidYMid meet">
<metadata>
Created by potrace 1.14, written by Peter Selinger 2001-2017
</metadata>
<g transform="translate(0.000000,512.000000) scale(0.100000,-0.100000)"
fill="#000000" stroke="none">
<path d="M2405 5085 c-269 -47 -538 -174 -887 -418 -305 -214 -636 -527 -869
-822 -218 -276 -390 -584 -498 -890 -29 -80 -83 -273 -95 -335 -27 -143 -26
-135 -46 -295 -7 -58 -5 -1185 3 -2087 2 -220 3 -228 22 -229 111 -4 2139 1
2195 6 41 3 81 11 88 18 24 19 5 762 -24 935 -3 23 -9 44 -13 46 -3 2 -40 7
-81 11 -41 3 -86 8 -100 10 -14 2 -50 6 -80 10 -77 9 -123 15 -145 19 -11 2
-40 7 -65 10 -25 4 -79 14 -120 22 -41 8 -84 16 -95 18 -37 7 -109 28 -204 58
-323 103 -558 295 -677 553 -34 74 -39 92 -53 183 -12 80 -3 331 14 407 3 11
7 36 9 55 7 63 51 213 89 305 49 119 220 435 247 455 3 3 22 27 41 55 18 27
39 55 44 61 6 6 26 31 45 55 60 76 201 212 330 320 69 57 134 112 145 122 54
50 263 200 365 262 63 38 174 110 245 160 72 50 171 119 222 153 l92 62 88
-58 c49 -31 133 -88 187 -127 54 -38 115 -81 135 -95 20 -15 81 -52 136 -84
334 -195 560 -371 715 -555 25 -30 50 -59 55 -65 25 -27 116 -159 168 -243 64
-104 162 -303 200 -408 98 -270 122 -407 121 -710 0 -209 -10 -258 -79 -400
-102 -209 -314 -367 -629 -470 -98 -31 -290 -76 -391 -90 -22 -3 -51 -8 -65
-10 -14 -3 -44 -7 -67 -10 -95 -11 -131 -16 -193 -26 -36 -5 -72 -12 -82 -15
-16 -5 -43 -61 -53 -111 -18 -96 -27 -782 -11 -866 l7 -38 1092 2 c1006 1
1196 4 1212 21 27 27 28 2186 1 2315 -3 12 -7 48 -11 80 -3 32 -8 65 -10 73
-2 8 -6 33 -10 55 -3 22 -12 67 -20 100 -8 33 -21 90 -30 127 -8 38 -33 125
-56 195 -125 387 -311 735 -551 1030 -93 115 -292 313 -393 392 -44 34 -87 68
-95 75 -92 73 -389 250 -588 351 -422 211 -736 303 -927 270z"/>
<path d="M1774 2726 c-52 -19 -120 -67 -143 -102 -36 -52 -71 -145 -71 -190 0
-72 56 -190 127 -270 141 -156 513 -295 813 -303 125 -3 220 22 375 97 212
104 299 173 368 290 85 145 67 318 -41 399 -86 65 -162 35 -251 -96 -21 -31
-47 -66 -57 -78 -11 -11 -35 -41 -54 -64 -71 -88 -203 -209 -255 -234 -111
-55 -210 -38 -297 50 -30 30 -110 151 -155 235 -101 187 -133 234 -176 257
-38 20 -140 25 -183 9z"/>
</g>
</svg>
