<svg width="200" height="200" viewBox="0 0 200 200" fill="none" xmlns="http://www.w3.org/2000/svg">
<path fill-rule="evenodd" clip-rule="evenodd" d="M88.6401 16.6732C79.6318 19.1832 62.7008 29.3116 49.4342 42.1436C29.6939 61.2371 17.8436 81.8992 15.1164 106.599C14.6637 110.702 14.591 123.542 14.8791 148.463L15.2957 184.41H53.6235C89.6395 184.41 91.9655 184.347 92.1916 183.374C92.6567 181.371 91.9578 156.27 91.3608 153.535L90.7561 150.765L86.8111 150.38C72.0312 148.934 61.6815 146.568 54.2969 142.949C45.5259 138.65 38.8401 130.915 36.9951 122.933C36.0004 118.629 36.5738 108.493 38.1531 102.457C41.2152 90.756 50.2152 75.3087 61.5336 66.1105C66.8779 61.7673 72.8531 55.9519 81.091 51.1418C86.8649 47.7704 91.6874 44.0258 94.514 42.1436L99.6525 38.7217L104.908 42.1436C107.613 43.7602 113.088 48.3128 117.481 50.6797C121.875 53.0465 127.434 56.9264 129.834 58.5785C143.957 68.3022 154.124 85.0974 158.351 101.421C159.832 107.138 160.457 118.36 159.562 123.167C156.821 137.895 143.642 146.39 118.755 149.468C113.863 150.074 109.613 150.721 109.313 150.906C109.013 151.092 108.399 152.515 107.947 154.069C106.981 157.396 106.809 184.113 107.749 184.855C108.057 185.098 125.271 185.164 146.003 185.002C175.826 184.767 183.856 184.545 184.464 183.937C185.569 182.831 185.568 115.95 184.464 106.599C181.234 79.2525 168.029 54.1945 148.547 38.4394C138.634 30.4235 122.131 21.4927 109.789 17.4661C99.9288 14.2489 97.6484 14.1631 88.6401 16.6732Z" fill="black"/>
<path d="M69.9141 96.1371C70.5301 95.5903 71.8325 94.7264 72.8082 94.2176C74.9201 93.117 77.4899 93.0649 79.8579 94.0755C81.2023 94.6495 82.4437 96.4241 85.4863 102.126C89.8082 110.222 92.1609 112.703 96.0076 113.219C97.7218 113.449 99.0378 113.178 100.959 112.199C104.282 110.507 110.412 103.473 113.399 99.0968C116.617 94.3832 119.425 94.1016 122.77 97.6773C124.849 99.8998 125.183 105.173 123.459 108.552C121.409 112.571 118.809 115.039 113.718 117.801C105.932 122.025 102.131 123.071 96.2715 122.603C87.255 121.883 77.323 118.243 72.1195 113.752C69.3141 111.33 66.5875 106.345 66.607 103.673C66.6224 101.491 68.3715 97.5063 69.9141 96.1371Z" fill="black"/>
</svg>
